<svg id="Expanded" xmlns="http://www.w3.org/2000/svg" fill= "#ff8200" viewBox="0 0 96 96"><path d="M55.59,28.31a5.63,5.63,0,1,1,5.63-5.63A5.64,5.64,0,0,1,55.59,28.31Zm0-9.26a3.63,3.63,0,1,0,3.63,3.63A3.64,3.64,0,0,0,55.59,19.05Z"/><path d="M55.59,41.87a1,1,0,0,1-.69-.28c-.43-.4-10.48-10.05-10.48-18.91a11.17,11.17,0,0,1,22.33,0c0,8.86-10,18.51-10.48,18.91A1,1,0,0,1,55.59,41.87Zm0-28.35a9.17,9.17,0,0,0-9.17,9.16c0,6.74,6.93,14.46,9.17,16.77,2.24-2.31,9.16-10,9.16-16.77A9.17,9.17,0,0,0,55.59,13.52Z"/><path d="M55.59,45.52c-8.34,0-14.63-3-14.63-7,0-2.78,3-5.14,8.08-6.31a1,1,0,0,1,.45,1.95c-3.91.91-6.53,2.66-6.53,4.36,0,2.37,5.19,5,12.63,5s12.62-2.64,12.62-5c0-1.7-2.62-3.45-6.52-4.36a1,1,0,1,1,.45-1.95c5,1.17,8.07,3.53,8.07,6.31C70.21,42.51,63.92,45.52,55.59,45.52Z"/><path d="M16.62,67.28a5.64,5.64,0,1,1,5.64-5.64A5.64,5.64,0,0,1,16.62,67.28Zm0-9.27a3.64,3.64,0,1,0,3.64,3.63A3.64,3.64,0,0,0,16.62,58Z"/><path d="M16.62,80.83a1,1,0,0,1-.68-.27C15.51,80.15,5.46,70.5,5.46,61.64a11.17,11.17,0,0,1,22.33,0c0,8.86-10,18.51-10.48,18.92A1,1,0,0,1,16.62,80.83Zm0-28.35a9.17,9.17,0,0,0-9.16,9.16c0,6.74,6.92,14.46,9.16,16.77,2.24-2.31,9.17-10,9.17-16.77A9.17,9.17,0,0,0,16.62,52.48Z"/><path d="M16.62,84.49c-8.33,0-14.62-3-14.62-7,0-2.78,3-5.13,8.07-6.31a1,1,0,0,1,.46,2C6.62,74,4,75.77,4,77.47c0,2.37,5.18,5,12.62,5s12.63-2.65,12.63-5c0-1.7-2.62-3.45-6.53-4.36a1,1,0,0,1,.46-2c5.05,1.18,8.07,3.53,8.07,6.31C31.25,81.47,25,84.49,16.62,84.49Z"/><path d="M79.38,67.28A5.64,5.64,0,1,1,85,61.64,5.65,5.65,0,0,1,79.38,67.28Zm0-9.27A3.64,3.64,0,1,0,83,61.64,3.64,3.64,0,0,0,79.38,58Z"/><path d="M79.38,80.83a1,1,0,0,1-.69-.27c-.43-.41-10.48-10.06-10.48-18.92a11.17,11.17,0,0,1,22.33,0c0,8.86-10.05,18.51-10.48,18.92A1,1,0,0,1,79.38,80.83Zm0-28.35a9.17,9.17,0,0,0-9.17,9.16c0,6.74,6.93,14.46,9.17,16.77,2.24-2.31,9.16-10,9.16-16.77A9.17,9.17,0,0,0,79.38,52.48Z"/><path d="M79.38,84.49c-8.34,0-14.63-3-14.63-7,0-2.78,3-5.13,8.08-6.31a1,1,0,1,1,.45,2c-3.91.91-6.53,2.66-6.53,4.36,0,2.37,5.19,5,12.63,5S92,79.84,92,77.47c0-1.7-2.62-3.45-6.52-4.36a1,1,0,1,1,.45-2C91,72.34,94,74.69,94,77.47,94,81.47,87.71,84.49,79.38,84.49Z"/><path d="M27.7,75a1,1,0,0,1-.57-.17,1,1,0,0,1-.26-1.39L47.7,43.08a1,1,0,1,1,1.65,1.13L28.52,74.53A1,1,0,0,1,27.7,75Z"/><path d="M66.08,79.79h0L30.21,78.47a1,1,0,0,1-1-1,1,1,0,0,1,1-1l35.84,1.32a1,1,0,0,1,0,2Z"/></svg>